<mxfile host="app.diagrams.net" modified="2021-02-16T20:18:29.539Z" agent="5.0 (Windows NT 10.0; WOW64) AppleWebKit/537.36 (KHTML, like Gecko) Chrome/88.0.4324.150 Safari/537.36" etag="XrKNqV-kYD83HL6t3cek" version="14.3.2" type="github">
  <diagram id="C5RBs43oDa-KdzZeNtuy" name="Page-1">
    <mxGraphModel dx="782" dy="469" grid="1" gridSize="10" guides="1" tooltips="1" connect="1" arrows="1" fold="1" page="1" pageScale="1" pageWidth="827" pageHeight="1169" math="0" shadow="0">
      <root>
        <mxCell id="WIyWlLk6GJQsqaUBKTNV-0" />
        <mxCell id="WIyWlLk6GJQsqaUBKTNV-1" parent="WIyWlLk6GJQsqaUBKTNV-0" />
        <mxCell id="WIyWlLk6GJQsqaUBKTNV-2" value="" style="rounded=0;html=1;jettySize=auto;orthogonalLoop=1;fontSize=11;endArrow=block;endFill=0;endSize=8;strokeWidth=1;shadow=0;labelBackgroundColor=none;edgeStyle=orthogonalEdgeStyle;" parent="WIyWlLk6GJQsqaUBKTNV-1" source="WIyWlLk6GJQsqaUBKTNV-3" target="QKM6CVSV-TR_Cu1FrVLs-3" edge="1">
          <mxGeometry relative="1" as="geometry">
            <mxPoint x="220" y="130" as="targetPoint" />
          </mxGeometry>
        </mxCell>
        <mxCell id="WIyWlLk6GJQsqaUBKTNV-3" value="Получить список файлов в папке Recieve" style="rounded=1;whiteSpace=wrap;html=1;fontSize=12;glass=0;strokeWidth=1;shadow=0;" parent="WIyWlLk6GJQsqaUBKTNV-1" vertex="1">
          <mxGeometry x="160" y="10" width="120" height="40" as="geometry" />
        </mxCell>
        <mxCell id="WIyWlLk6GJQsqaUBKTNV-5" value="Да" style="edgeStyle=orthogonalEdgeStyle;rounded=0;html=1;jettySize=auto;orthogonalLoop=1;fontSize=11;endArrow=block;endFill=0;endSize=8;strokeWidth=1;shadow=0;labelBackgroundColor=none;" parent="WIyWlLk6GJQsqaUBKTNV-1" source="WIyWlLk6GJQsqaUBKTNV-6" target="WIyWlLk6GJQsqaUBKTNV-7" edge="1">
          <mxGeometry x="-0.5181" y="20" relative="1" as="geometry">
            <mxPoint as="offset" />
            <Array as="points">
              <mxPoint x="670" y="320" />
              <mxPoint x="670" y="670" />
            </Array>
          </mxGeometry>
        </mxCell>
        <mxCell id="QKM6CVSV-TR_Cu1FrVLs-119" style="edgeStyle=orthogonalEdgeStyle;rounded=0;orthogonalLoop=1;jettySize=auto;html=1;entryX=0.5;entryY=1;entryDx=0;entryDy=0;labelBackgroundColor=none;endArrow=block;endFill=0;" edge="1" parent="WIyWlLk6GJQsqaUBKTNV-1" source="WIyWlLk6GJQsqaUBKTNV-6" target="QKM6CVSV-TR_Cu1FrVLs-7">
          <mxGeometry relative="1" as="geometry" />
        </mxCell>
        <mxCell id="WIyWlLk6GJQsqaUBKTNV-6" value="Ошибка открытия файла?" style="rhombus;whiteSpace=wrap;html=1;shadow=0;fontFamily=Helvetica;fontSize=12;align=center;strokeWidth=1;spacing=6;spacingTop=-4;" parent="WIyWlLk6GJQsqaUBKTNV-1" vertex="1">
          <mxGeometry x="170" y="280" width="100" height="80" as="geometry" />
        </mxCell>
        <mxCell id="WIyWlLk6GJQsqaUBKTNV-7" value="Plug in lamp" style="rounded=1;whiteSpace=wrap;html=1;fontSize=12;glass=0;strokeWidth=1;shadow=0;" parent="WIyWlLk6GJQsqaUBKTNV-1" vertex="1">
          <mxGeometry x="610" y="750" width="120" height="40" as="geometry" />
        </mxCell>
        <mxCell id="WIyWlLk6GJQsqaUBKTNV-9" value="Да" style="edgeStyle=orthogonalEdgeStyle;rounded=0;html=1;jettySize=auto;orthogonalLoop=1;fontSize=11;endArrow=block;endFill=0;endSize=8;strokeWidth=1;shadow=0;labelBackgroundColor=none;" parent="WIyWlLk6GJQsqaUBKTNV-1" source="WIyWlLk6GJQsqaUBKTNV-10" target="WIyWlLk6GJQsqaUBKTNV-12" edge="1">
          <mxGeometry y="10" relative="1" as="geometry">
            <mxPoint as="offset" />
            <Array as="points">
              <mxPoint x="570" y="540" />
            </Array>
          </mxGeometry>
        </mxCell>
        <mxCell id="QKM6CVSV-TR_Cu1FrVLs-118" value="Нет" style="edgeStyle=orthogonalEdgeStyle;rounded=0;orthogonalLoop=1;jettySize=auto;html=1;entryX=0.5;entryY=0;entryDx=0;entryDy=0;labelBackgroundColor=none;endArrow=block;endFill=0;" edge="1" parent="WIyWlLk6GJQsqaUBKTNV-1" source="WIyWlLk6GJQsqaUBKTNV-10" target="QKM6CVSV-TR_Cu1FrVLs-16">
          <mxGeometry x="-0.2" y="20" relative="1" as="geometry">
            <mxPoint as="offset" />
          </mxGeometry>
        </mxCell>
        <mxCell id="WIyWlLk6GJQsqaUBKTNV-10" value="Ошибка парсинга?" style="rhombus;whiteSpace=wrap;html=1;shadow=0;fontFamily=Helvetica;fontSize=12;align=center;strokeWidth=1;spacing=6;spacingTop=-4;" parent="WIyWlLk6GJQsqaUBKTNV-1" vertex="1">
          <mxGeometry x="170" y="500" width="100" height="80" as="geometry" />
        </mxCell>
        <mxCell id="QKM6CVSV-TR_Cu1FrVLs-125" style="edgeStyle=orthogonalEdgeStyle;rounded=0;orthogonalLoop=1;jettySize=auto;html=1;entryX=0.5;entryY=0;entryDx=0;entryDy=0;labelBackgroundColor=none;endArrow=block;endFill=0;" edge="1" parent="WIyWlLk6GJQsqaUBKTNV-1" source="WIyWlLk6GJQsqaUBKTNV-11" target="QKM6CVSV-TR_Cu1FrVLs-124">
          <mxGeometry relative="1" as="geometry" />
        </mxCell>
        <mxCell id="WIyWlLk6GJQsqaUBKTNV-11" value="Кладем в список готовых заданий" style="rounded=1;whiteSpace=wrap;html=1;fontSize=12;glass=0;strokeWidth=1;shadow=0;" parent="WIyWlLk6GJQsqaUBKTNV-1" vertex="1">
          <mxGeometry x="159" y="1060" width="120" height="50" as="geometry" />
        </mxCell>
        <mxCell id="WIyWlLk6GJQsqaUBKTNV-12" value="Replace Bulb" style="rounded=1;whiteSpace=wrap;html=1;fontSize=12;glass=0;strokeWidth=1;shadow=0;" parent="WIyWlLk6GJQsqaUBKTNV-1" vertex="1">
          <mxGeometry x="510" y="850" width="120" height="40" as="geometry" />
        </mxCell>
        <mxCell id="QKM6CVSV-TR_Cu1FrVLs-13" value="Для каждого файла в списке" style="edgeStyle=orthogonalEdgeStyle;rounded=0;orthogonalLoop=1;jettySize=auto;html=1;exitX=0.5;exitY=1;exitDx=0;exitDy=0;entryX=0.5;entryY=0;entryDx=0;entryDy=0;endArrow=block;endFill=0;labelBackgroundColor=none;" edge="1" parent="WIyWlLk6GJQsqaUBKTNV-1" source="QKM6CVSV-TR_Cu1FrVLs-3" target="QKM6CVSV-TR_Cu1FrVLs-12">
          <mxGeometry x="-0.0909" y="20" relative="1" as="geometry">
            <Array as="points">
              <mxPoint x="220" y="150" />
              <mxPoint x="220" y="150" />
            </Array>
            <mxPoint as="offset" />
          </mxGeometry>
        </mxCell>
        <mxCell id="QKM6CVSV-TR_Cu1FrVLs-3" value="Отфильтровать файлы имена которых содержат OUT_MARK или REPORT_AGGREGATION" style="rounded=1;whiteSpace=wrap;html=1;" vertex="1" parent="WIyWlLk6GJQsqaUBKTNV-1">
          <mxGeometry x="110" y="80" width="220" height="60" as="geometry" />
        </mxCell>
        <mxCell id="QKM6CVSV-TR_Cu1FrVLs-120" style="edgeStyle=orthogonalEdgeStyle;rounded=0;orthogonalLoop=1;jettySize=auto;html=1;entryX=0.5;entryY=0;entryDx=0;entryDy=0;labelBackgroundColor=none;endArrow=block;endFill=0;" edge="1" parent="WIyWlLk6GJQsqaUBKTNV-1" source="QKM6CVSV-TR_Cu1FrVLs-7" target="WIyWlLk6GJQsqaUBKTNV-10">
          <mxGeometry relative="1" as="geometry" />
        </mxCell>
        <mxCell id="QKM6CVSV-TR_Cu1FrVLs-7" value="Парсим файл&amp;nbsp;" style="rounded=1;whiteSpace=wrap;html=1;direction=west;" vertex="1" parent="WIyWlLk6GJQsqaUBKTNV-1">
          <mxGeometry x="160" y="400" width="120" height="60" as="geometry" />
        </mxCell>
        <mxCell id="QKM6CVSV-TR_Cu1FrVLs-122" value="" style="edgeStyle=orthogonalEdgeStyle;rounded=0;orthogonalLoop=1;jettySize=auto;html=1;labelBackgroundColor=none;endArrow=block;endFill=0;" edge="1" parent="WIyWlLk6GJQsqaUBKTNV-1" source="QKM6CVSV-TR_Cu1FrVLs-11" target="QKM6CVSV-TR_Cu1FrVLs-121">
          <mxGeometry relative="1" as="geometry" />
        </mxCell>
        <mxCell id="QKM6CVSV-TR_Cu1FrVLs-11" value="Добавляем в базу данных коды и номер&lt;br&gt;задания" style="rounded=1;whiteSpace=wrap;html=1;" vertex="1" parent="WIyWlLk6GJQsqaUBKTNV-1">
          <mxGeometry x="157" y="850" width="125" height="60" as="geometry" />
        </mxCell>
        <mxCell id="QKM6CVSV-TR_Cu1FrVLs-15" value="" style="edgeStyle=orthogonalEdgeStyle;rounded=0;orthogonalLoop=1;jettySize=auto;html=1;labelBackgroundColor=none;endArrow=block;endFill=0;" edge="1" parent="WIyWlLk6GJQsqaUBKTNV-1" source="QKM6CVSV-TR_Cu1FrVLs-12" target="WIyWlLk6GJQsqaUBKTNV-6">
          <mxGeometry relative="1" as="geometry" />
        </mxCell>
        <mxCell id="QKM6CVSV-TR_Cu1FrVLs-12" value="Открываем файл для чтения" style="rounded=1;whiteSpace=wrap;html=1;" vertex="1" parent="WIyWlLk6GJQsqaUBKTNV-1">
          <mxGeometry x="160" y="184" width="120" height="60" as="geometry" />
        </mxCell>
        <mxCell id="QKM6CVSV-TR_Cu1FrVLs-17" value="Нет" style="edgeStyle=orthogonalEdgeStyle;rounded=0;orthogonalLoop=1;jettySize=auto;html=1;labelBackgroundColor=none;endArrow=block;endFill=0;" edge="1" parent="WIyWlLk6GJQsqaUBKTNV-1" source="QKM6CVSV-TR_Cu1FrVLs-16">
          <mxGeometry x="-0.6316" y="10" relative="1" as="geometry">
            <mxPoint x="440" y="970" as="targetPoint" />
            <Array as="points">
              <mxPoint x="440" y="670" />
              <mxPoint x="440" y="930" />
            </Array>
            <mxPoint as="offset" />
          </mxGeometry>
        </mxCell>
        <mxCell id="QKM6CVSV-TR_Cu1FrVLs-117" value="Да" style="edgeStyle=orthogonalEdgeStyle;rounded=0;orthogonalLoop=1;jettySize=auto;html=1;exitX=0.5;exitY=1;exitDx=0;exitDy=0;entryX=0.5;entryY=0;entryDx=0;entryDy=0;labelBackgroundColor=none;endArrow=block;endFill=0;" edge="1" parent="WIyWlLk6GJQsqaUBKTNV-1" source="QKM6CVSV-TR_Cu1FrVLs-16" target="QKM6CVSV-TR_Cu1FrVLs-128">
          <mxGeometry y="15" relative="1" as="geometry">
            <Array as="points">
              <mxPoint x="220" y="710" />
            </Array>
            <mxPoint as="offset" />
          </mxGeometry>
        </mxCell>
        <mxCell id="QKM6CVSV-TR_Cu1FrVLs-16" value="Это файл задания?" style="rhombus;whiteSpace=wrap;html=1;shadow=0;fontFamily=Helvetica;fontSize=12;align=center;strokeWidth=1;spacing=6;spacingTop=-4;" vertex="1" parent="WIyWlLk6GJQsqaUBKTNV-1">
          <mxGeometry x="165" y="630" width="110" height="80" as="geometry" />
        </mxCell>
        <mxCell id="QKM6CVSV-TR_Cu1FrVLs-123" value="Да" style="edgeStyle=orthogonalEdgeStyle;rounded=0;orthogonalLoop=1;jettySize=auto;html=1;entryX=0.5;entryY=0;entryDx=0;entryDy=0;labelBackgroundColor=none;endArrow=block;endFill=0;" edge="1" parent="WIyWlLk6GJQsqaUBKTNV-1" source="QKM6CVSV-TR_Cu1FrVLs-121" target="WIyWlLk6GJQsqaUBKTNV-11">
          <mxGeometry x="-0.1429" y="20" relative="1" as="geometry">
            <mxPoint as="offset" />
          </mxGeometry>
        </mxCell>
        <mxCell id="QKM6CVSV-TR_Cu1FrVLs-132" value="Нет" style="edgeStyle=orthogonalEdgeStyle;rounded=0;orthogonalLoop=1;jettySize=auto;html=1;labelBackgroundColor=none;endArrow=block;endFill=0;entryX=0.5;entryY=0;entryDx=0;entryDy=0;" edge="1" parent="WIyWlLk6GJQsqaUBKTNV-1" source="QKM6CVSV-TR_Cu1FrVLs-121" target="QKM6CVSV-TR_Cu1FrVLs-133">
          <mxGeometry x="-0.2595" y="-10" relative="1" as="geometry">
            <mxPoint x="80" y="1050" as="targetPoint" />
            <Array as="points">
              <mxPoint x="80" y="980" />
            </Array>
            <mxPoint as="offset" />
          </mxGeometry>
        </mxCell>
        <mxCell id="QKM6CVSV-TR_Cu1FrVLs-121" value="Добавление&lt;br&gt;успешно?" style="rhombus;whiteSpace=wrap;html=1;shadow=0;fontFamily=Helvetica;fontSize=12;align=center;strokeWidth=1;spacing=6;spacingTop=-4;" vertex="1" parent="WIyWlLk6GJQsqaUBKTNV-1">
          <mxGeometry x="164.5" y="940" width="110" height="80" as="geometry" />
        </mxCell>
        <mxCell id="QKM6CVSV-TR_Cu1FrVLs-127" style="edgeStyle=orthogonalEdgeStyle;rounded=0;orthogonalLoop=1;jettySize=auto;html=1;entryX=0.5;entryY=0;entryDx=0;entryDy=0;labelBackgroundColor=none;endArrow=block;endFill=0;" edge="1" parent="WIyWlLk6GJQsqaUBKTNV-1" source="QKM6CVSV-TR_Cu1FrVLs-124" target="QKM6CVSV-TR_Cu1FrVLs-126">
          <mxGeometry relative="1" as="geometry" />
        </mxCell>
        <mxCell id="QKM6CVSV-TR_Cu1FrVLs-124" value="Создаем в папке Send файл &lt;br&gt;REPORT (OK)" style="rounded=1;whiteSpace=wrap;html=1;fontSize=12;glass=0;strokeWidth=1;shadow=0;" vertex="1" parent="WIyWlLk6GJQsqaUBKTNV-1">
          <mxGeometry x="159" y="1180" width="120" height="50" as="geometry" />
        </mxCell>
        <mxCell id="QKM6CVSV-TR_Cu1FrVLs-126" value="" style="ellipse;html=1;shape=endState;fillColor=#000000;strokeColor=#ff0000;" vertex="1" parent="WIyWlLk6GJQsqaUBKTNV-1">
          <mxGeometry x="204" y="1280" width="30" height="30" as="geometry" />
        </mxCell>
        <mxCell id="QKM6CVSV-TR_Cu1FrVLs-129" value="Нет" style="edgeStyle=orthogonalEdgeStyle;rounded=0;orthogonalLoop=1;jettySize=auto;html=1;labelBackgroundColor=none;endArrow=block;endFill=0;" edge="1" parent="WIyWlLk6GJQsqaUBKTNV-1" source="QKM6CVSV-TR_Cu1FrVLs-128" target="QKM6CVSV-TR_Cu1FrVLs-11">
          <mxGeometry x="-0.3443" y="20" relative="1" as="geometry">
            <mxPoint as="offset" />
          </mxGeometry>
        </mxCell>
        <mxCell id="QKM6CVSV-TR_Cu1FrVLs-131" value="Да" style="edgeStyle=orthogonalEdgeStyle;rounded=0;orthogonalLoop=1;jettySize=auto;html=1;labelBackgroundColor=none;endArrow=block;endFill=0;" edge="1" parent="WIyWlLk6GJQsqaUBKTNV-1" source="QKM6CVSV-TR_Cu1FrVLs-128">
          <mxGeometry x="-0.8389" y="15" relative="1" as="geometry">
            <mxPoint x="220" y="1240" as="targetPoint" />
            <Array as="points">
              <mxPoint x="380" y="775" />
              <mxPoint x="380" y="1240" />
              <mxPoint x="220" y="1240" />
            </Array>
            <mxPoint as="offset" />
          </mxGeometry>
        </mxCell>
        <mxCell id="QKM6CVSV-TR_Cu1FrVLs-128" value="Задание &lt;br&gt;уже в списке &lt;br&gt;готовых?" style="rhombus;whiteSpace=wrap;html=1;shadow=0;fontFamily=Helvetica;fontSize=12;align=center;strokeWidth=1;spacing=6;spacingTop=-4;" vertex="1" parent="WIyWlLk6GJQsqaUBKTNV-1">
          <mxGeometry x="160" y="730" width="120" height="90" as="geometry" />
        </mxCell>
        <mxCell id="QKM6CVSV-TR_Cu1FrVLs-134" style="edgeStyle=orthogonalEdgeStyle;rounded=0;orthogonalLoop=1;jettySize=auto;html=1;labelBackgroundColor=none;endArrow=block;endFill=0;" edge="1" parent="WIyWlLk6GJQsqaUBKTNV-1" source="QKM6CVSV-TR_Cu1FrVLs-133">
          <mxGeometry relative="1" as="geometry">
            <mxPoint x="220" y="1240" as="targetPoint" />
            <Array as="points">
              <mxPoint x="80" y="1240" />
            </Array>
          </mxGeometry>
        </mxCell>
        <mxCell id="QKM6CVSV-TR_Cu1FrVLs-133" value="Создаем в папке Send файл&amp;nbsp;&lt;br&gt;REPORT (Abort)&amp;nbsp;" style="rounded=1;whiteSpace=wrap;html=1;fontSize=12;glass=0;strokeWidth=1;shadow=0;" vertex="1" parent="WIyWlLk6GJQsqaUBKTNV-1">
          <mxGeometry x="20" y="1180" width="120" height="50" as="geometry" />
        </mxCell>
      </root>
    </mxGraphModel>
  </diagram>
</mxfile>
